<svg width="430" height="528" viewBox="0 0 430 528" fill="none" xmlns="http://www.w3.org/2000/svg">
<path d="M1 1L1 524" stroke="#4D5A4E" stroke-width="0.9" stroke-linecap="round" stroke-dasharray="1 2 3 1 2 3"/>
<path d="M1 435L197 435" stroke="#4D5A4E" stroke-width="0.9" stroke-linecap="round" stroke-dasharray="1 2 3 1 2 3"/>
<path d="M1 260L416 260" stroke="#4D5A4E" stroke-width="0.9" stroke-linecap="round" stroke-dasharray="1 2 3 1 2 3"/>
<path d="M1 116L210 116" stroke="#4D5A4E" stroke-width="0.9" stroke-linecap="round" stroke-dasharray="1 2 3 1 2 3"/>
<path d="M1 28L239 28" stroke="#4D5A4E" stroke-width="0.9" stroke-linecap="round" stroke-dasharray="1 2 3 1 2 3"/>
<path d="M1 203L218 203" stroke="#4D5A4E" stroke-width="0.9" stroke-linecap="round" stroke-dasharray="1 2 3 1 2 3"/>
<path d="M251.297 27.6288L227 23.0001" stroke="#4D5A4E" stroke-width="0.9" stroke-linecap="round" stroke-dasharray="1 2 3 1 2 3"/>
<path d="M251.644 27.6246L227.348 32.8552" stroke="#4D5A4E" stroke-width="0.9" stroke-linecap="round" stroke-dasharray="1 2 3 1 2 3"/>
<path d="M428.296 259.629L404 255" stroke="#4D5A4E" stroke-width="0.9" stroke-linecap="round" stroke-dasharray="1 2 3 1 2 3"/>
<path d="M428.644 259.625L404.348 264.855" stroke="#4D5A4E" stroke-width="0.9" stroke-linecap="round" stroke-dasharray="1 2 3 1 2 3"/>
<path d="M1 522L387 522" stroke="#4D5A4E" stroke-width="0.9" stroke-linecap="round" stroke-dasharray="1 2 3 1 2 3"/>
<path d="M403.296 521.629L379 517" stroke="#4D5A4E" stroke-width="0.9" stroke-linecap="round" stroke-dasharray="1 2 3 1 2 3"/>
<path d="M403.644 521.625L379.348 526.855" stroke="#4D5A4E" stroke-width="0.9" stroke-linecap="round" stroke-dasharray="1 2 3 1 2 3"/>
<path d="M209.297 434.629L185 430" stroke="#4D5A4E" stroke-width="0.9" stroke-linecap="round" stroke-dasharray="1 2 3 1 2 3"/>
<path d="M209.644 434.625L185.348 439.855" stroke="#4D5A4E" stroke-width="0.9" stroke-linecap="round" stroke-dasharray="1 2 3 1 2 3"/>
<path d="M1 329L249 329" stroke="#4D5A4E" stroke-width="0.9" stroke-linecap="round" stroke-dasharray="1 2 3 1 2 3"/>
<path d="M266.296 328.629L242 324" stroke="#4D5A4E" stroke-width="0.9" stroke-linecap="round" stroke-dasharray="1 2 3 1 2 3"/>
<path d="M266.644 328.625L242.348 333.855" stroke="#4D5A4E" stroke-width="0.9" stroke-linecap="round" stroke-dasharray="1 2 3 1 2 3"/>
<path d="M226.296 115.629L202 111" stroke="#4D5A4E" stroke-width="0.9" stroke-linecap="round" stroke-dasharray="1 2 3 1 2 3"/>
<path d="M226.644 115.625L202.347 120.855" stroke="#4D5A4E" stroke-width="0.9" stroke-linecap="round" stroke-dasharray="1 2 3 1 2 3"/>
<path d="M233.296 202.629L209 198" stroke="#4D5A4E" stroke-width="0.9" stroke-linecap="round" stroke-dasharray="1 2 3 1 2 3"/>
<path d="M233.644 202.625L209.348 207.855" stroke="#4D5A4E" stroke-width="0.9" stroke-linecap="round" stroke-dasharray="1 2 3 1 2 3"/>
</svg>
