<svg width="385" height="530" viewBox="0 0 385 530" fill="none" xmlns="http://www.w3.org/2000/svg">
<path d="M1.99902 1L1.99902 524" stroke="#833a0e" stroke-width="0.9" stroke-linecap="round" stroke-dasharray="1 2 3 1 2 3"/>
<path d="M1 437L232 437" stroke="#833a0e" stroke-width="0.9" stroke-linecap="round" stroke-dasharray="1 2 3 1 2 3"/>
<path d="M1 262H329" stroke="#833a0e" stroke-width="0.9" stroke-linecap="round" stroke-dasharray="1 2 3 1 2 3"/>
<path d="M1 118L218 118" stroke="#833a0e" stroke-width="0.9" stroke-linecap="round" stroke-dasharray="1 2 3 1 2 3"/>
<path d="M1 30H290" stroke="#833a0e" stroke-width="0.9" stroke-linecap="round" stroke-dasharray="1 2 3 1 2 3"/>
<path d="M1 205H368" stroke="#833a0e" stroke-width="0.9" stroke-linecap="round" stroke-dasharray="1 2 3 1 2 3"/>
<path d="M308.296 29.6288L284 25.0001" stroke="#833a0e" stroke-width="0.9" stroke-linecap="round" stroke-dasharray="1 2 3 1 2 3"/>
<path d="M308.644 29.6246L284.347 34.8552" stroke="#833a0e" stroke-width="0.9" stroke-linecap="round" stroke-dasharray="1 2 3 1 2 3"/>
<path d="M344.296 261.629L320 257" stroke="#833a0e" stroke-width="0.9" stroke-linecap="round" stroke-dasharray="1 2 3 1 2 3"/>
<path d="M344.644 261.625L320.347 266.855" stroke="#833a0e" stroke-width="0.9" stroke-linecap="round" stroke-dasharray="1 2 3 1 2 3"/>
<path d="M1 524H256" stroke="#833a0e" stroke-width="0.9" stroke-linecap="round" stroke-dasharray="1 2 3 1 2 3"/>
<path d="M268.296 523.629L244 519" stroke="#833a0e" stroke-width="0.9" stroke-linecap="round" stroke-dasharray="1 2 3 1 2 3"/>
<path d="M268.644 523.625L244.347 528.855" stroke="#833a0e" stroke-width="0.9" stroke-linecap="round" stroke-dasharray="1 2 3 1 2 3"/>
<path d="M244.296 436.629L219.999 432" stroke="#833a0e" stroke-width="0.9" stroke-linecap="round" stroke-dasharray="1 2 3 1 2 3"/>
<path d="M244.643 436.625L220.347 441.855" stroke="#833a0e" stroke-width="0.9" stroke-linecap="round" stroke-dasharray="1 2 3 1 2 3"/>
<path d="M2 331H245" stroke="#833a0e" stroke-width="0.9" stroke-linecap="round" stroke-dasharray="1 2 3 1 2 3"/>
<path d="M261.296 330.629L237 326" stroke="#833a0e" stroke-width="0.9" stroke-linecap="round" stroke-dasharray="1 2 3 1 2 3"/>
<path d="M261.644 330.625L237.347 335.855" stroke="#833a0e" stroke-width="0.9" stroke-linecap="round" stroke-dasharray="1 2 3 1 2 3"/>
<path d="M236.296 117.629L212 113" stroke="#833a0e" stroke-width="0.9" stroke-linecap="round" stroke-dasharray="1 2 3 1 2 3"/>
<path d="M236.643 117.625L212.347 122.855" stroke="#833a0e" stroke-width="0.9" stroke-linecap="round" stroke-dasharray="1 2 3 1 2 3"/>
<path d="M383.296 204.629L359 200" stroke="#833a0e" stroke-width="0.9" stroke-linecap="round" stroke-dasharray="1 2 3 1 2 3"/>
<path d="M383.643 204.625L359.347 209.855" stroke="#833a0e" stroke-width="0.9" stroke-linecap="round" stroke-dasharray="1 2 3 1 2 3"/>
</svg>
