<svg width="35" height="35" viewBox="0 0 35 35" fill="none" xmlns="http://www.w3.org/2000/svg">
<circle cx="17.5" cy="17.5" r="17.15" fill="#FFF8E7" stroke="#775C3C" stroke-width="0.7"/>
<path d="M6.50324 24.0352L6.4819 12.1843C6.48161 12.021 6.54546 11.8642 6.6597 11.7475C6.6597 11.7029 6.69596 11.6667 6.74059 11.6669L28.0218 11.7268C28.1358 11.7271 28.2407 11.7892 28.2957 11.8891C28.4395 12.0588 28.518 12.2742 28.5172 12.4966L28.4758 23.593C28.4746 23.9243 28.3643 24.2459 28.162 24.5083C28.1059 24.5845 28.0169 24.6295 27.9223 24.6293L6.96613 24.5894C6.86929 24.5892 6.77597 24.5531 6.70427 24.488C6.57653 24.3721 6.50355 24.2077 6.50324 24.0352Z" fill="#FFF8E7"/>
<path d="M6.6597 11.7475V11.7475C6.6597 11.7029 6.69596 11.6667 6.74059 11.6669L28.0218 11.7268C28.1358 11.7271 28.2407 11.7892 28.2957 11.8891V11.8891M6.6597 11.7475V11.7475C6.54546 11.8642 6.48161 12.021 6.4819 12.1843L6.50324 24.0352C6.50355 24.2077 6.57653 24.3721 6.70427 24.488V24.488M6.6597 11.7475L13.7677 16.672M28.2957 11.8891V11.8891C28.4395 12.0588 28.518 12.2742 28.5172 12.4966L28.4758 23.593C28.4746 23.9243 28.3643 24.2459 28.162 24.5083V24.5083M28.2957 11.8891L21.1208 16.6342M6.70427 24.488V24.488C6.77597 24.5531 6.86929 24.5892 6.96613 24.5894L27.9223 24.6293C28.0169 24.6295 28.1059 24.5845 28.162 24.5083V24.5083M6.70427 24.488L11.2498 19.4525L12.3194 18.2796L13.7677 16.672M13.7677 16.672L16.2961 18.4222C16.6375 18.6585 17.0428 18.7851 17.458 18.7851V18.7851C17.8838 18.7851 18.2989 18.652 18.6453 18.4043L21.1208 16.6342M28.162 24.5083L21.1208 16.6342" stroke="#775C3C" stroke-width="0.7"/>
</svg>
