<svg width="36" height="36" viewBox="0 0 36 36" fill="none" xmlns="http://www.w3.org/2000/svg">
<circle cx="18" cy="18" r="17.65" fill="#FFF8E7" stroke="#4D5A4E" stroke-width="0.7"/>
<path d="M8.4587 13.1072C8.33839 13.7758 8.26615 18.5193 8.26599 18.5299L8.26599 18.5299C8.2658 18.5406 8.18177 23.4426 8.26599 23.9526C8.3503 24.4631 8.79294 25.6644 9.61497 26.4257C10.4822 27.2288 11.6264 27.5488 12.4334 27.6736C13.2404 27.7984 22.7676 27.8097 23.3216 27.6736C23.8757 27.5374 25.3466 27.2473 26.2484 26.4257C27.0817 25.6665 27.4047 24.8261 27.6336 23.9526C27.8624 23.079 27.766 13.7539 27.6336 13.1072C27.5011 12.4606 27.0385 11.4984 26.2484 10.7589C25.3442 9.91263 24.1286 9.5791 23.3216 9.39759C22.5146 9.21608 13.4572 9.20474 12.4334 9.39759C11.4096 9.59045 10.4502 9.89953 9.61497 10.7589C8.89031 11.5046 8.57915 12.4379 8.4587 13.1072Z" stroke="#4D5A4E" stroke-width="0.7"/>
<path d="M17.8856 14.5141H17.9618C20.3144 14.5141 22.2617 16.4213 22.2617 18.7739C22.2617 21.1266 20.3144 23.0338 17.9618 23.0338H17.8856C15.5329 23.0338 13.6257 21.1266 13.6257 18.7739C13.6257 16.4213 15.5329 14.5141 17.8856 14.5141Z" stroke="#4D5A4E" stroke-width="0.7"/>
<path d="M23.6844 12.3926H23.7474H23.802C24.3283 12.3926 24.7549 12.8192 24.7549 13.3455C24.7549 13.8718 24.3283 14.2985 23.802 14.2985H23.7474H23.6844C23.1581 14.2985 22.7314 13.8718 22.7314 13.3455C22.7314 12.8192 23.1581 12.3926 23.6844 12.3926Z" stroke="#4D5A4E" stroke-width="0.7"/>
</svg>
