<svg width="95" height="45" viewBox="0 0 95 45" fill="none" xmlns="http://www.w3.org/2000/svg">
<path d="M38.9631 15.4016H38.9478V15.4167H38.9631V15.4016Z" fill="#431919"/>
<path d="M58.4196 20.9176H55.914V21.654H58.4196V20.9176Z" fill="white"/>
<path d="M57.5317 21.285H56.8V27.0813H57.5317V21.285Z" fill="white"/>
<path d="M17.7474 27.0817C16.9243 27.0817 16.1371 26.7612 15.549 26.1637C14.7759 25.3786 14.4841 24.259 14.7699 23.1694C14.9875 22.3403 15.585 21.6192 16.3675 21.24C17.5906 20.6452 18.9952 20.8868 19.9413 21.8542C20.8846 22.8203 21.0942 24.2249 20.4733 25.434C20.0781 26.2031 19.3504 26.7833 18.5259 26.9869C18.2655 27.051 18.0045 27.0824 17.7474 27.0824V27.0817ZM17.7474 21.5525C17.4009 21.5525 17.0304 21.6306 16.6465 21.8168C16.031 22.1159 15.561 22.6821 15.3907 23.3317C15.1624 24.1996 15.3934 25.0902 16.0063 25.7124C16.6185 26.3346 17.5051 26.5763 18.3717 26.3627C19.0193 26.2031 19.5914 25.7458 19.9019 25.1396C20.4994 23.9759 20.0768 22.9104 19.4826 22.3015C19.08 21.8896 18.4671 21.5518 17.7481 21.5518L17.7474 21.5525Z" fill="white"/>
<path d="M44.688 27.0602C43.8675 27.0602 43.0837 26.7405 42.4968 26.1443C41.7264 25.3625 41.436 24.2469 41.7211 23.1613C41.938 22.3348 42.5336 21.6165 43.3133 21.2393C44.5338 20.6464 45.9304 20.8861 46.8738 21.8508C47.8145 22.8135 48.0221 24.2135 47.4045 25.4179H47.4039C47.0106 26.1843 46.2849 26.7632 45.4644 26.9655C45.2054 27.0295 44.945 27.0602 44.688 27.0602ZM44.6886 21.5504C44.3435 21.5504 43.9743 21.6285 43.5917 21.8141C42.9782 22.1112 42.5102 22.6753 42.34 23.3242C42.1123 24.1895 42.3413 25.0761 42.9522 25.6963C43.563 26.3165 44.4483 26.5589 45.3109 26.3446C45.9558 26.1857 46.5253 25.7303 46.8357 25.1261C47.4312 23.9658 47.01 22.9043 46.4171 22.2981C46.0165 21.8875 45.405 21.551 44.6893 21.551L44.6886 21.5504Z" fill="white"/>
<path d="M75.165 24.7477H73.7687C72.7115 24.7477 71.8522 23.8892 71.8522 22.8323C71.8522 22.3156 72.0505 21.8329 72.4097 21.4737C72.7689 21.1145 73.2509 20.9176 73.7687 20.9176H75.165V24.7477ZM73.7687 21.6186C73.4385 21.6186 73.1321 21.7441 72.9051 21.9704C72.6788 22.1968 72.5539 22.5032 72.5539 22.833C72.5539 23.5026 73.098 24.0474 73.768 24.0474H74.4626V21.6193H73.768L73.7687 21.6186Z" fill="white"/>
<path d="M75.1649 24.397H74.4632V27.0815H75.1649V24.397Z" fill="white"/>
<path d="M74.5843 24.1251L71.8521 26.5271L72.3154 27.0541L75.0476 24.6521L74.5843 24.1251Z" fill="white"/>
<path d="M10.6873 20.9176H9.99035V27.0817H10.6873V20.9176Z" fill="white"/>
<path d="M13.1137 20.9379L10.0931 23.9532L10.585 24.4461L13.6056 21.4307L13.1137 20.9379Z" fill="white"/>
<path d="M10.5721 23.75L10.103 24.2645L13.1951 27.0841L13.6643 26.5696L10.5721 23.75Z" fill="white"/>
<path d="M27.2878 27.0817L26.1274 23.0533L24.8523 27.0644L23.5771 23.0533L22.4168 27.0817L21.8226 26.9108L23.5484 20.9176L24.8523 25.0208L26.1561 20.9176L27.8819 26.9108L27.2878 27.0817Z" fill="white"/>
<path d="M31.9765 27.0727C31.1493 27.0727 30.3601 26.7502 29.7686 26.1501C28.9922 25.3623 28.6991 24.238 28.9868 23.1438C29.2052 22.3112 29.8054 21.5869 30.5911 21.207C31.8202 20.6095 33.2289 20.8511 34.1789 21.8232C35.127 22.7933 35.3366 24.2039 34.7137 25.4177C34.3171 26.1894 33.5861 26.7723 32.7582 26.9772C32.4972 27.0413 32.2348 27.0727 31.9758 27.0727H31.9765ZM31.9771 21.5208C31.6293 21.5208 31.2574 21.5995 30.8715 21.7865C30.2533 22.0862 29.782 22.6544 29.6104 23.308C29.3814 24.1799 29.6117 25.0732 30.2273 25.6981C30.8428 26.3236 31.7348 26.5673 32.604 26.3517C33.2543 26.1914 33.8291 25.7328 34.1409 25.1239C34.7411 23.9549 34.3165 22.8854 33.719 22.2738C33.315 21.8606 32.6995 21.5214 31.9778 21.5214L31.9771 21.5208Z" fill="white"/>
<path d="M37.5257 27.0729C36.6985 27.0729 35.9094 26.7511 35.3179 26.1509C34.5415 25.3624 34.2484 24.2382 34.5355 23.1446C34.7538 22.3121 35.354 21.5884 36.1397 21.2071C37.3688 20.6096 38.7795 20.852 39.7282 21.824C40.6756 22.7941 40.8845 24.2048 40.2623 25.4185C39.8657 26.1903 39.1347 26.7731 38.3068 26.9781C38.0458 27.0422 37.7834 27.0735 37.5251 27.0735L37.5257 27.0729ZM37.5257 21.5209C37.1779 21.5209 36.806 21.5997 36.4201 21.7866C35.8019 22.0864 35.3306 22.6552 35.159 23.3082C34.93 24.1801 35.1617 25.074 35.7772 25.6989C36.3921 26.3238 37.2827 26.5661 38.1526 26.3518C38.8029 26.1916 39.3777 25.7329 39.6895 25.1241C40.2897 23.9557 39.8651 22.8855 39.2682 22.2747C38.8643 21.8607 38.2488 21.5216 37.5264 21.5216L37.5257 21.5209Z" fill="white"/>
<path d="M35.0722 18.6115H34.4273V28.9349H35.0722V18.6115Z" fill="white"/>
<path d="M51.8398 27.0814C51.0166 27.0814 50.2301 26.7603 49.6406 26.1621C48.8682 25.3769 48.5764 24.258 48.8635 23.1685C49.0805 22.3399 49.6774 21.6189 50.4611 21.239C51.6836 20.6455 53.0882 20.8845 54.0336 21.8532C54.9769 22.8193 55.1859 24.224 54.5657 25.433C54.1711 26.2021 53.4427 26.783 52.6176 26.9859C52.3579 27.05 52.0968 27.0814 51.8405 27.0814H51.8398ZM51.8405 21.5521C51.494 21.5521 51.1241 21.6303 50.7395 21.8165C50.1233 22.1156 49.6533 22.6818 49.4837 23.3314C49.2554 24.1999 49.4851 25.0899 50.098 25.7114C50.7102 26.333 51.5934 26.5773 52.464 26.3624C53.1116 26.2028 53.6831 25.7461 53.9942 25.1393C54.5924 23.9749 54.1698 22.9101 53.5749 22.3012C53.1724 21.8893 52.5601 21.5515 51.8411 21.5515L51.8405 21.5521Z" fill="white"/>
<path d="M49.3947 21.525H48.7525V28.9343H49.3947V21.525Z" fill="white"/>
<path d="M63.597 20.9268H62.8386V27.0769H63.597V20.9268Z" fill="white"/>
<path d="M60.1741 20.9176H59.4157V27.0817H60.1741V20.9176Z" fill="white"/>
<path d="M63.2178 23.5071H59.7949V24.2695H63.2178V23.5071Z" fill="white"/>
<path d="M67.6675 27.0599C66.847 27.0599 66.0632 26.7401 65.4764 26.1446C64.7059 25.3621 64.4155 24.2465 64.6999 23.161C64.9169 22.3345 65.5124 21.6161 66.2929 21.2382C67.5126 20.6441 68.9106 20.8871 69.8526 21.8498C70.7933 22.8125 71.0023 24.2125 70.3834 25.4169C69.9902 26.1833 69.2645 26.7615 68.4426 26.9644C68.1836 27.0285 67.9232 27.0592 67.6669 27.0592L67.6675 27.0599ZM67.6682 21.55C67.323 21.55 66.9538 21.6281 66.572 21.8137C65.9564 22.1108 65.4891 22.6756 65.3188 23.3232C65.0912 24.1885 65.3215 25.0757 65.9324 25.696C66.5426 26.3162 67.4265 26.5565 68.2891 26.3442C68.9347 26.1853 69.5048 25.73 69.8139 25.1258C70.4101 23.9655 69.9882 22.904 69.396 22.2978C68.9941 21.8872 68.3839 21.5507 67.6682 21.5507V21.55Z" fill="white"/>
<path d="M70.8554 21.124H70.2158V27.0812H70.8554V21.124Z" fill="white"/>
<path d="M17.4677 36.2866C16.6472 36.2866 15.8634 35.9668 15.2766 35.3706C14.5061 34.5888 14.2157 33.4732 14.5008 32.3877C14.7178 31.5611 15.3133 30.8428 16.0931 30.4656C17.3135 29.8727 18.7102 30.1124 19.6535 31.0771C20.5942 32.0398 20.8018 33.4398 20.1843 34.6442H20.1836C19.7904 35.4107 19.0647 35.9895 18.2442 36.1918C17.9851 36.2559 17.7247 36.2866 17.4677 36.2866ZM17.4684 30.7768C17.1232 30.7768 16.754 30.8548 16.3715 31.0404C15.7579 31.3375 15.2899 31.9016 15.1197 32.5506C14.892 33.4158 15.121 34.3024 15.7319 34.9226C16.3428 35.5428 17.228 35.7852 18.0906 35.5709C18.7355 35.412 19.305 34.9567 19.6155 34.3525C20.211 33.1921 19.7897 32.1306 19.1969 31.5244C18.7963 31.1138 18.1847 30.7774 17.469 30.7774L17.4684 30.7768Z" fill="white"/>
<path d="M22.2939 30.1439H21.5329V36.2867H22.2939V30.1439Z" fill="white"/>
<path d="M25.7295 30.1533H24.9684V36.3081H25.7295V30.1533Z" fill="white"/>
<path d="M25.349 32.7241H21.9134V33.4839H25.349V32.7241Z" fill="white"/>
<path d="M11.6541 36.2867C10.8763 36.2867 10.2073 35.766 9.98969 34.9915L10.6146 34.8159C10.7528 35.3073 11.1707 35.6378 11.6541 35.6378C12.2569 35.6378 12.7476 35.113 12.7476 34.4681C12.7476 33.8232 12.2816 33.3151 11.6868 33.2918L11.6995 32.6428C12.2115 32.6428 12.6275 32.2296 12.6275 31.7215C12.6275 31.2135 12.2115 30.7928 11.6995 30.7928C11.359 30.7928 11.0399 30.9905 10.8863 31.2962L10.3061 31.0065C10.5719 30.4744 11.1053 30.1439 11.6995 30.1439C12.5694 30.1439 13.2771 30.8516 13.2771 31.7215C13.2771 32.2309 13.032 32.6842 12.6528 32.9713C13.1048 33.3018 13.3972 33.8486 13.3972 34.4681C13.3972 35.4709 12.6154 36.2867 11.6541 36.2867Z" fill="white"/>
<path d="M29.8107 36.308C28.9875 36.308 28.2004 35.9876 27.6122 35.39C26.8391 34.6049 26.5474 33.4853 26.8331 32.3958C27.0508 31.5666 27.6483 30.8455 28.4307 30.4663C29.6551 29.8715 31.0585 30.1132 32.0045 31.0805C32.9479 32.0466 33.1575 33.4513 32.5366 34.6603C32.1414 35.4294 31.4137 36.0096 30.5891 36.2132C30.3288 36.2773 30.0677 36.3087 29.8107 36.3087V36.308ZM29.8107 30.7788C29.4642 30.7788 29.0937 30.8569 28.7098 31.0432C28.0942 31.3423 27.6242 31.9084 27.454 32.558C27.2257 33.4259 27.4567 34.3165 28.0695 34.9387C28.6818 35.561 29.5697 35.8026 30.4349 35.589C31.0825 35.4294 31.6547 34.9721 31.9651 34.3659C32.5626 33.2022 32.14 32.1367 31.5459 31.5279C31.1433 31.1159 30.5304 30.7781 29.8114 30.7781L29.8107 30.7788Z" fill="white"/>
<path d="M33.0106 30.3729H32.3684V36.3081H33.0106V30.3729Z" fill="white"/>
<path d="M12.5133 11.2391H9.99038V11.9755H12.5133V11.2391Z" fill="white"/>
<path d="M11.6207 11.605H10.8836V17.4013H11.6207V11.605Z" fill="white"/>
<path d="M13.5094 13.7541V13.7461H14.2137L13.5094 13.7541Z" fill="white"/>
<path d="M14.8947 17.4015H13.5094V13.4017H14.8947C15.4228 13.4017 15.9382 13.614 16.3074 13.9852C16.6893 14.3664 16.8996 14.8705 16.8996 15.4053C16.8996 16.5055 16.0003 17.4015 14.8954 17.4015H14.8947ZM14.2137 16.6978H14.8947C15.6117 16.6978 16.1946 16.1183 16.1946 15.4053C16.1946 15.0581 16.0577 14.731 15.81 14.4826C15.5703 14.2423 15.2372 14.1054 14.8947 14.1054H14.2137V16.6978Z" fill="white"/>
<path d="M14.7805 14.0972H13.5094V11.2371H14.7805C15.5443 11.2371 16.1672 11.8579 16.1672 12.6224V12.7118C16.1672 13.4756 15.545 14.0972 14.7805 14.0972ZM14.2137 13.3935H14.7805C15.1571 13.3935 15.4622 13.0877 15.4622 12.7118V12.6224C15.4622 12.2465 15.1571 11.9407 14.7805 11.9407H14.2137V13.3941V13.3935Z" fill="white"/>
<path d="M20.9807 17.4016C20.1576 17.4016 19.3711 17.0812 18.7823 16.4836C18.0092 15.6985 17.7174 14.5789 18.0032 13.4893C18.2208 12.6602 18.8183 11.9391 19.6014 11.5599C20.8265 10.9637 22.2285 11.2074 23.1732 12.1735C24.1172 13.1395 24.3269 14.5442 23.706 15.7533C23.3114 16.5224 22.583 17.1025 21.7585 17.3061C21.4982 17.3702 21.2371 17.4016 20.9801 17.4016H20.9807ZM20.9814 11.873C20.6349 11.873 20.2644 11.9511 19.8812 12.1374C19.2636 12.4358 18.7943 13.002 18.6234 13.6522C18.395 14.5202 18.626 15.4108 19.2389 16.033C19.8511 16.6552 20.7371 16.8969 21.6043 16.6833C22.2519 16.5237 22.824 16.067 23.1345 15.4602C23.7327 14.2958 23.3094 13.231 22.7152 12.6221C22.312 12.2102 21.6998 11.8724 20.9814 11.8724V11.873Z" fill="white"/>
<path d="M28.3806 15.0806H26.9786C25.9185 15.0806 25.0566 14.2187 25.0566 13.1585C25.0566 12.6397 25.2555 12.1557 25.616 11.7952C25.9752 11.4347 26.4599 11.2371 26.9786 11.2371H28.3806V15.0806ZM26.9786 11.9401C26.6482 11.9401 26.3404 12.0649 26.1141 12.2926C25.8864 12.5202 25.7609 12.8273 25.7609 13.1585C25.7609 13.8301 26.3063 14.3769 26.9786 14.3769H27.6763V11.9401H26.9786Z" fill="white"/>
<path d="M28.3813 14.73H27.677V17.4025H28.3813V14.73Z" fill="white"/>
<path d="M27.7996 14.4586L25.0579 16.8689L25.5225 17.3974L28.2642 14.9871L27.7996 14.4586Z" fill="white"/>
<path d="M67.8608 43.8247H20.6649C11.5624 43.8247 7.01119 43.8247 4.11744 41.0794C3.99016 40.9587 3.86608 40.8346 3.74532 40.7073C1 37.8136 1 33.2623 1 24.1598C1 15.0573 1 10.5061 3.74532 7.61231C3.86608 7.48503 3.99016 7.36095 4.11744 7.2402C7.01119 4.49487 11.5624 4.49487 20.665 4.49487H67.8608C76.9633 4.49487 81.5145 4.49487 84.4083 7.2402C84.5356 7.36095 84.6597 7.48503 84.7804 7.61231C87.5257 10.5061 87.5257 15.0573 87.5257 24.1598C87.5257 33.2623 87.5257 37.8136 84.7804 40.7073C84.6597 40.8346 84.5356 40.9587 84.4083 41.0794C81.5145 43.8247 76.9633 43.8247 67.8608 43.8247Z" stroke="#775C3C" stroke-width="0.5" stroke-linejoin="round"/>
<path d="M72.9792 7.90123C72.6737 7.83852 71.7684 8.16404 71.1358 8.42417C70.8348 8.54779 69.8113 8.96833 69.7868 9.8437C69.7703 10.4349 70.2156 11.0117 70.7049 11.2182C71.7051 11.6398 72.6373 10.3035 72.7336 10.162C72.9438 9.85331 72.9904 9.62978 73.0065 9.50833C73.086 8.91313 73.0731 8.02933 72.9793 7.9016L72.9792 7.90123Z" fill="#4D5A4E"/>
<path d="M89.1169 21.6659C89.7363 21.6023 90.7395 21.3884 91.7186 20.6276C93.3611 19.3519 94.119 17.1737 93.9569 15.3955C93.9046 14.82 93.7974 13.6459 93.0129 13.2283C91.9596 12.6677 90.5341 13.9237 90.4745 13.9775C89.2644 15.0698 89.0747 16.7725 88.9265 18.1012C88.8317 18.9507 88.7933 20.197 89.1167 21.6655L89.1169 21.6659Z" fill="#4D5A4E"/>
<path d="M85.3469 18.3792C86.017 18.1821 87.1694 17.7178 88.1219 16.5703C89.236 15.2282 90.1259 12.8925 89.3226 11.5248C89.041 11.0453 88.4752 10.5551 87.8228 10.5899C87.1273 10.627 86.6428 11.2451 86.2752 11.7135C84.9737 13.3725 84.9316 15.464 84.9599 16.2407C84.9929 17.1483 85.18 17.8803 85.3469 18.3792Z" fill="#4D5A4E"/>
<path d="M82.4169 14.7258C82.8364 14.5112 83.4381 14.1417 84.037 13.5201C84.5347 13.0032 85.4717 12.0302 85.621 10.5385C85.6508 10.2396 85.8118 8.63427 84.9505 8.0608C84.3406 7.6546 83.4929 7.94905 82.9919 8.34643C81.7883 9.30037 81.8865 11.3994 81.9288 12.3015C81.9791 13.38 82.2346 14.2263 82.4173 14.7262L82.4169 14.7258Z" fill="#4D5A4E"/>
<path d="M78.9929 12.2066C78.9929 12.2066 80.396 11.9735 80.7901 11.2685C81.3334 10.2969 81.9032 9.05292 81.2728 7.6961C81.0831 7.28805 80.6493 6.71937 80.1457 6.74289C79.4994 6.77304 79.0363 7.72955 78.7845 8.58607C78.1228 10.8358 78.9925 12.2066 78.9925 12.2066H78.9929Z" fill="#4D5A4E"/>
<path d="M76.9342 10.1321C76.9342 10.1321 78.3803 8.11841 78.5763 7.60082C79.0446 6.36236 79.5717 4.96914 78.949 4.07402C78.5435 3.491 77.6966 3.18663 77.1249 3.491C76.4353 3.85861 76.3673 4.9945 76.2942 6.22157C76.2192 7.47878 76.9342 10.1321 76.9342 10.1321Z" fill="#4D5A4E"/>
<path d="M73.6558 7.77986C73.9323 7.69715 74.8351 7.39534 75.3931 6.6083C76.2056 5.46321 75.8846 3.86119 74.8564 3.47557C74.4521 3.32375 73.7838 3.30206 73.3555 3.65276C72.7173 4.17549 72.9203 5.27353 73.0772 6.12196C73.2125 6.85313 73.4581 7.41078 73.6555 7.77986H73.6558Z" fill="#4D5A4E"/>
<path d="M70.4536 6.4051C70.6602 6.33231 71.3502 6.05845 71.8174 5.25376C72.3221 4.38438 72.3489 3.2709 71.9688 2.44011C71.6387 1.71851 70.8679 0.918231 70.2779 1.17151C69.5074 1.50235 69.5437 3.41574 69.5478 3.62527C69.5739 4.99717 70.1558 5.97427 70.4539 6.4051H70.4536Z" fill="#4D5A4E"/>
<path d="M67.8143 4.93219C68.019 4.61788 68.3271 4.05692 68.4583 3.27943C68.5502 2.73464 68.7138 1.76637 68.1672 0.945512C67.8011 0.395575 67.0651 -0.165757 66.6052 0.0456154C66.0002 0.323892 66.2009 1.79137 66.2318 2.01598C66.4211 3.3978 67.2666 4.40026 67.8143 4.93219Z" fill="#4D5A4E"/>
<path d="M65.4798 4.49592C65.6004 4.28344 65.8033 3.864 65.8496 3.29495C65.871 3.03175 65.9301 2.29874 65.5067 1.72859C65.2424 1.37311 64.7012 0.960662 64.3178 1.18968C63.9436 1.41355 63.9296 2.12413 63.9282 2.20684C63.9024 3.52581 65.3199 4.40034 65.4798 4.49592Z" fill="#4D5A4E"/>
<path d="M64.8542 4.62245C64.1036 4.35153 63.3757 4.52283 63.0361 5.03453C62.8644 5.29296 62.6898 5.7929 62.9015 6.17117C63.1272 6.5748 63.6558 6.59538 63.9676 6.50826C64.5098 6.35681 64.8167 5.7635 64.8877 5.28414C64.9289 5.0066 64.8906 4.77096 64.8539 4.62208L64.8542 4.62245Z" fill="#4D5A4E"/>
<path d="M67.3591 5.2087C66.2493 5.33266 65.5048 5.75936 65.0864 6.05967C64.541 6.45105 63.9598 6.86843 63.9909 7.49771C64.0189 8.07276 64.5494 8.64688 65.0762 8.76328C66.0143 8.97057 66.8263 7.6994 67.1289 6.90029C67.3823 6.22938 67.3872 5.59854 67.3598 5.2085L67.3591 5.2087Z" fill="#4D5A4E"/>
<path d="M69.8897 6.82164C69.3743 6.85892 68.9298 6.92409 68.1068 7.23856C67.2255 7.575 66.5218 8.27325 66.5095 8.90618C66.4996 9.42171 67.0151 9.96674 67.4228 10.1975C68.3019 10.6945 69.2716 10.0649 69.7589 9.32202C70.2773 8.53154 69.905 7.20971 69.8895 6.82209L69.8897 6.82164Z" fill="#4D5A4E"/>
<path d="M78.0276 12.1785C76.6941 12.3562 75.8612 12.9293 75.4406 13.2825C75.0084 13.7586 74.442 14.1975 74.4465 14.8823C74.4515 15.5786 74.5755 16.1036 75.1649 16.2938C76.1917 16.6247 77.7865 15.4577 78.1039 14.121C78.3003 13.2938 78.1357 12.5507 78.0276 12.1785Z" fill="#4D5A4E"/>
<path d="M75.8587 9.9789C74.6171 9.90188 73.7708 10.3142 73.3715 10.5517C72.8926 10.8367 71.7623 11.5097 71.8329 12.4428C71.8777 13.0356 72.3903 13.5155 72.8337 13.7022C73.8209 14.1176 74.9916 13.2993 75.5258 12.3457C76.0714 11.3721 75.9204 10.3171 75.8587 9.9789Z" fill="#4D5A4E"/>
<path d="M80.9039 14.9828C80.1256 14.9032 78.5915 14.8846 77.2355 15.9035C76.7062 16.3013 75.6743 17.0768 75.7566 18.2081C75.8015 18.8252 76.1724 19.4684 76.6819 19.7719C77.8591 20.473 79.7431 19.3392 80.5206 17.785C81.0841 16.6582 80.9779 15.4873 80.9039 14.9825L80.9039 14.9828Z" fill="#4D5A4E"/>
<path d="M84.4946 18.9805C83.7109 18.8204 82.1685 18.6399 80.6715 19.4401C79.9745 19.8125 78.9393 20.366 78.7719 21.5631C78.6068 22.7444 79.4039 23.7152 79.4475 23.768C79.9863 24.4046 80.8774 24.8903 81.6438 24.7216C82.5979 24.5115 83.4915 23.7473 84.3515 21.3422C84.6313 20.5595 84.609 19.8172 84.4946 18.9805Z" fill="#4D5A4E"/>
<path d="M87.5122 21.9268C86.8636 22.02 85.8495 22.2635 84.8822 22.9851C84.0155 23.6315 82.3693 25.2709 82.9504 26.5467C83.3148 27.3474 84.4156 27.6937 85.134 27.7204C86.6771 27.7777 87.8538 26.4123 88.1339 24.9972C88.4216 23.5444 87.7181 22.2739 87.5119 21.927L87.5122 21.9268Z" fill="#4D5A4E"/>
<path d="M91.6846 24.7214C89.6613 23.6323 87.7907 22.3184 86.123 20.8197C84.2991 19.2122 82.8826 17.2854 81.3065 15.4939C80.6089 14.7191 79.8728 13.963 79.1251 13.2247C76.4605 10.6192 73.5417 8.16683 70.1066 6.40893C69.432 6.05658 68.6646 5.6928 67.9594 5.3932C65.9516 4.52932 63.838 3.86138 61.6804 3.37109C63.7001 3.79493 65.6882 4.38249 67.5917 5.1299C67.8475 5.23632 68.1691 5.36169 68.4227 5.4713C68.8802 5.66791 69.4725 5.93692 69.9171 6.15294C73.5134 7.88207 76.59 10.3552 79.3875 13.0037C80.156 13.7369 80.9072 14.4821 81.6284 15.2557C83.1708 16.9433 84.5483 18.7523 86.29 20.2784C86.6024 20.5589 86.9499 20.8471 87.2765 21.114C87.4501 21.2522 87.6702 21.4264 87.8448 21.5584L87.9595 21.6463L88.0756 21.7326C89.3109 22.6561 90.6317 23.4841 92.0206 24.2025L91.6843 24.7216L91.6846 24.7214Z" fill="#506A49"/>
</svg>
