<svg width="35" height="35" viewBox="0 0 35 35" fill="none" xmlns="http://www.w3.org/2000/svg">
<circle cx="17.5" cy="17.5" r="17.15" fill="#FFF8E7" stroke="#775C3C" stroke-width="0.7"/>
<path d="M11.3157 17.4456H11.311V17.4502H11.3157V17.4456Z" fill="#FFF8E7"/>
<path d="M16.8995 19.0286H16.1804V19.2399H16.8995V19.0286Z" fill="#431919"/>
<path d="M16.6448 19.1342H16.4348V20.7977H16.6448V19.1342Z" fill="#431919"/>
<path d="M5.2265 20.7977C4.99025 20.7977 4.76434 20.7057 4.59553 20.5342C4.37365 20.3089 4.28992 19.9875 4.37193 19.6748C4.43439 19.4369 4.60588 19.2299 4.83045 19.1211C5.18147 18.9504 5.58461 19.0197 5.85612 19.2974C6.12686 19.5746 6.18703 19.9778 6.00883 20.3248C5.8954 20.5455 5.68655 20.712 5.44991 20.7705C5.37519 20.7888 5.30027 20.7979 5.2265 20.7979V20.7977ZM5.2265 19.2108C5.12705 19.2108 5.02071 19.2332 4.91054 19.2866C4.73388 19.3725 4.59898 19.535 4.55012 19.7214C4.48459 19.9705 4.55089 20.2261 4.72679 20.4047C4.90249 20.5833 5.15694 20.6526 5.40565 20.5913C5.59151 20.5455 5.75572 20.4143 5.84481 20.2403C6.0163 19.9063 5.89502 19.6005 5.72449 19.4258C5.60895 19.3075 5.43305 19.2106 5.22669 19.2106L5.2265 19.2108Z" fill="#431919"/>
<path d="M12.9585 20.7916C12.723 20.7916 12.4981 20.6998 12.3296 20.5287C12.1085 20.3044 12.0252 19.9842 12.107 19.6726C12.1693 19.4354 12.3402 19.2293 12.564 19.121C12.9142 18.9509 13.3151 19.0196 13.5858 19.2965C13.8558 19.5728 13.9154 19.9746 13.7382 20.3203H13.738C13.6251 20.5402 13.4168 20.7064 13.1813 20.7644C13.107 20.7828 13.0323 20.7916 12.9585 20.7916ZM12.9587 19.2103C12.8596 19.2103 12.7537 19.2327 12.6439 19.286C12.4678 19.3712 12.3335 19.5331 12.2846 19.7194C12.2193 19.9677 12.285 20.2222 12.4603 20.4002C12.6356 20.5782 12.8897 20.6477 13.1373 20.5862C13.3224 20.5406 13.4858 20.4099 13.5749 20.2365C13.7458 19.9035 13.6249 19.5989 13.4548 19.4249C13.3398 19.3071 13.1643 19.2105 12.9589 19.2105L12.9587 19.2103Z" fill="#431919"/>
<path d="M21.7054 20.1278H21.3044C21.0012 20.1278 20.7546 19.8814 20.7546 19.5781C20.7546 19.4298 20.8115 19.2913 20.9146 19.1882C21.0177 19.0851 21.1561 19.0286 21.3044 19.0286H21.7054V20.1278ZM21.3044 19.2298C21.2099 19.2298 21.122 19.2658 21.0568 19.3307C20.9918 19.3957 20.956 19.4836 20.956 19.5783C20.956 19.7705 21.1122 19.9268 21.3042 19.9268H21.5038V19.2299H21.3042L21.3044 19.2298Z" fill="#431919"/>
<path d="M21.7055 20.0272H21.5042V20.7977H21.7055V20.0272Z" fill="#431919"/>
<path d="M21.5388 19.9493L20.7546 20.6387L20.8876 20.7899L21.6717 20.1006L21.5388 19.9493Z" fill="#431919"/>
<path d="M3.20028 19.0286H3.00024V20.7977H3.20028V19.0286Z" fill="#431919"/>
<path d="M3.89671 19.0345L3.02979 19.8999L3.17098 20.0413L4.0379 19.1759L3.89671 19.0345Z" fill="#431919"/>
<path d="M3.16712 19.8415L3.03247 19.9891L3.91992 20.7984L4.05457 20.6507L3.16712 19.8415Z" fill="#431919"/>
<path d="M7.96449 20.7977L7.63148 19.6415L7.26551 20.7927L6.89954 19.6415L6.56653 20.7977L6.396 20.7486L6.8913 19.0286L7.26551 20.2062L7.63972 19.0286L8.13502 20.7486L7.96449 20.7977Z" fill="#431919"/>
<path d="M9.31028 20.7953C9.07288 20.7953 8.8464 20.7028 8.67664 20.5305C8.4538 20.3044 8.36968 19.9817 8.45227 19.6677C8.51492 19.4288 8.68718 19.2209 8.9127 19.1118C9.26545 18.9403 9.66974 19.0097 9.9424 19.2887C10.2145 19.5671 10.2746 19.972 10.0959 20.3203C9.98206 20.5418 9.77225 20.7091 9.53466 20.7679C9.45974 20.7863 9.38444 20.7953 9.31009 20.7953H9.31028ZM9.31048 19.2019C9.21065 19.2019 9.10392 19.2245 8.99317 19.2781C8.81575 19.3642 8.68047 19.5272 8.63123 19.7148C8.56551 19.9651 8.63161 20.2214 8.80827 20.4008C8.98493 20.5803 9.24092 20.6503 9.4904 20.5884C9.67702 20.5424 9.84199 20.4107 9.93147 20.236C10.1037 19.9005 9.98187 19.5935 9.81038 19.418C9.69446 19.2994 9.5178 19.2021 9.31067 19.2021L9.31048 19.2019Z" fill="#431919"/>
<path d="M10.9029 20.7952C10.6655 20.7952 10.439 20.7029 10.2692 20.5306C10.0464 20.3043 9.96229 19.9817 10.0447 19.6678C10.1073 19.4289 10.2796 19.2212 10.5051 19.1118C10.8579 18.9403 11.2627 19.0098 11.535 19.2888C11.8069 19.5672 11.8669 19.9721 11.6883 20.3204C11.5745 20.5419 11.3647 20.7092 11.1271 20.768C11.0522 20.7864 10.9769 20.7954 10.9027 20.7954L10.9029 20.7952ZM10.9029 19.2018C10.8031 19.2018 10.6963 19.2244 10.5856 19.2781C10.4082 19.3641 10.2729 19.5274 10.2236 19.7148C10.1579 19.965 10.2244 20.2216 10.4011 20.4009C10.5775 20.5803 10.8331 20.6498 11.0828 20.5883C11.2694 20.5423 11.4344 20.4107 11.5239 20.2359C11.6961 19.9006 11.5743 19.5935 11.403 19.4182C11.2871 19.2994 11.1104 19.202 10.9031 19.202L10.9029 19.2018Z" fill="#431919"/>
<path d="M10.1988 18.3668H10.0137V21.3296H10.1988V18.3668Z" fill="#431919"/>
<path d="M15.0115 20.7978C14.7752 20.7978 14.5495 20.7056 14.3803 20.5339C14.1587 20.3086 14.0749 19.9875 14.1573 19.6748C14.2196 19.437 14.3909 19.23 14.6158 19.121C14.9667 18.9507 15.3698 19.0193 15.6411 19.2973C15.9119 19.5746 15.9718 19.9777 15.7938 20.3247C15.6806 20.5454 15.4715 20.7121 15.2347 20.7704C15.1602 20.7888 15.0853 20.7978 15.0117 20.7978H15.0115ZM15.0117 19.2109C14.9122 19.2109 14.8061 19.2333 14.6957 19.2868C14.5189 19.3726 14.384 19.5351 14.3353 19.7215C14.2698 19.9708 14.3357 20.2262 14.5116 20.4046C14.6873 20.583 14.9408 20.6531 15.1907 20.5914C15.3765 20.5456 15.5405 20.4146 15.6298 20.2404C15.8015 19.9062 15.6802 19.6006 15.5095 19.4259C15.3939 19.3077 15.2182 19.2107 15.0119 19.2107L15.0117 19.2109Z" fill="#431919"/>
<path d="M14.3093 19.2032H14.125V21.3297H14.3093V19.2032Z" fill="#431919"/>
<path d="M18.3854 19.0312H18.1677V20.7963H18.3854V19.0312Z" fill="#431919"/>
<path d="M17.403 19.0286H17.1853V20.7977H17.403V19.0286Z" fill="#431919"/>
<path d="M18.2766 19.7717H17.2942V19.9905H18.2766V19.7717Z" fill="#431919"/>
<path d="M19.5536 20.7916C19.3181 20.7916 19.0931 20.6998 18.9247 20.5289C18.7036 20.3043 18.6202 19.9842 18.7019 19.6726C18.7641 19.4354 18.935 19.2292 19.159 19.1208C19.5091 18.9503 19.9103 19.02 20.1807 19.2963C20.4507 19.5726 20.5106 19.9744 20.333 20.3201C20.2202 20.54 20.0119 20.7059 19.776 20.7642C19.7017 20.7826 19.6269 20.7914 19.5534 20.7914L19.5536 20.7916ZM19.5537 19.2103C19.4547 19.2103 19.3487 19.2327 19.2391 19.2859C19.0625 19.3712 18.9283 19.5333 18.8795 19.7192C18.8141 19.9675 18.8802 20.2221 19.0556 20.4001C19.2307 20.5781 19.4844 20.6471 19.7319 20.5862C19.9172 20.5406 20.0809 20.4099 20.1696 20.2365C20.3407 19.9035 20.2196 19.5988 20.0496 19.4249C19.9343 19.307 19.7591 19.2105 19.5537 19.2105V19.2103Z" fill="#431919"/>
<path d="M20.4685 19.088H20.2849V20.7977H20.4685V19.088Z" fill="#431919"/>
<path d="M5.14625 23.4397C4.91076 23.4397 4.68581 23.3479 4.51739 23.1768C4.29627 22.9524 4.21293 22.6323 4.29474 22.3207C4.35701 22.0835 4.52793 21.8773 4.75173 21.7691C5.10198 21.5989 5.50283 21.6677 5.77357 21.9446C6.04354 22.2209 6.10313 22.6227 5.9259 22.9683H5.9257C5.81285 23.1883 5.60457 23.3544 5.36909 23.4125C5.29474 23.4309 5.22001 23.4397 5.14625 23.4397ZM5.14644 21.8584C5.04738 21.8584 4.94142 21.8808 4.83163 21.934C4.65554 22.0193 4.52122 22.1812 4.47236 22.3675C4.40702 22.6158 4.47275 22.8702 4.64807 23.0482C4.82339 23.2262 5.07746 23.2958 5.32502 23.2343C5.51011 23.1887 5.67355 23.058 5.76265 22.8846C5.93356 22.5516 5.81266 22.2469 5.64251 22.073C5.52754 21.9551 5.35203 21.8586 5.14663 21.8586L5.14644 21.8584Z" fill="#431919"/>
<path d="M6.53142 21.6766H6.31299V23.4396H6.53142V21.6766Z" fill="#431919"/>
<path d="M7.5175 21.6793H7.29907V23.4457H7.5175V21.6793Z" fill="#431919"/>
<path d="M7.40813 22.4172H6.42212V22.6353H7.40813V22.4172Z" fill="#431919"/>
<path d="M3.47768 23.4396C3.25445 23.4396 3.06246 23.2902 3 23.0679L3.17934 23.0175C3.21901 23.1585 3.33895 23.2534 3.47768 23.2534C3.6507 23.2534 3.79153 23.1028 3.79153 22.9177C3.79153 22.7326 3.65779 22.5868 3.48707 22.5801L3.49071 22.3938C3.63767 22.3938 3.75704 22.2752 3.75704 22.1294C3.75704 21.9836 3.63767 21.8629 3.49071 21.8629C3.39299 21.8629 3.3014 21.9196 3.25733 22.0074L3.09082 21.9242C3.16708 21.7715 3.32018 21.6766 3.49071 21.6766C3.74037 21.6766 3.94348 21.8797 3.94348 22.1294C3.94348 22.2756 3.87315 22.4057 3.76432 22.4881C3.89404 22.5829 3.97796 22.7399 3.97796 22.9177C3.97796 23.2055 3.75359 23.4396 3.47768 23.4396Z" fill="#431919"/>
<path d="M8.68866 23.4457C8.4524 23.4457 8.2265 23.3538 8.05769 23.1823C7.83581 22.9569 7.75208 22.6356 7.83409 22.3229C7.89655 22.0849 8.06804 21.878 8.2926 21.7692C8.64401 21.5984 9.04677 21.6678 9.31828 21.9454C9.58902 22.2227 9.64918 22.6258 9.47099 22.9728C9.35756 23.1936 9.1487 23.3601 8.91207 23.4185C8.83734 23.4369 8.76242 23.4459 8.68866 23.4459V23.4457ZM8.68866 21.8588C8.58921 21.8588 8.48287 21.8813 8.3727 21.9347C8.19603 22.0206 8.06114 22.183 8.01228 22.3695C7.94675 22.6186 8.01305 22.8742 8.18894 23.0527C8.36465 23.2313 8.61949 23.3007 8.86781 23.2394C9.05367 23.1936 9.21788 23.0623 9.30697 22.8883C9.47846 22.5544 9.35717 22.2486 9.18664 22.0738C9.0711 21.9556 8.89521 21.8586 8.68885 21.8586L8.68866 21.8588Z" fill="#431919"/>
<path d="M9.60693 21.7424H9.42261V23.4458H9.60693V21.7424Z" fill="#431919"/>
<path d="M3.72433 16.2506H3.00024V16.462H3.72433V16.2506Z" fill="#431919"/>
<path d="M3.46813 16.3561H3.25659V18.0196H3.46813V16.3561Z" fill="#431919"/>
<path d="M4.01025 16.9729V16.9706H4.2124L4.01025 16.9729Z" fill="#431919"/>
<path d="M4.40784 18.0196H4.01025V16.8717H4.40784C4.5594 16.8717 4.70732 16.9326 4.81328 17.0392C4.92288 17.1486 4.98324 17.2932 4.98324 17.4467C4.98324 17.7625 4.72514 18.0196 4.40803 18.0196H4.40784ZM4.2124 17.8177H4.40784C4.61363 17.8177 4.7809 17.6514 4.7809 17.4467C4.7809 17.3471 4.74162 17.2532 4.67053 17.1819C4.60175 17.1129 4.50613 17.0737 4.40784 17.0737H4.2124V17.8177Z" fill="#431919"/>
<path d="M4.37507 17.0713H4.01025V16.2505H4.37507C4.59427 16.2505 4.77304 16.4287 4.77304 16.6481V16.6737C4.77304 16.8929 4.59447 17.0713 4.37507 17.0713ZM4.2124 16.8694H4.37507C4.48314 16.8694 4.57071 16.7816 4.57071 16.6737V16.6481C4.57071 16.5402 4.48314 16.4524 4.37507 16.4524H4.2124V16.8696V16.8694Z" fill="#431919"/>
<path d="M6.15448 18.0196C5.91822 18.0196 5.69251 17.9276 5.52351 17.7561C5.30163 17.5308 5.2179 17.2095 5.29991 16.8968C5.36237 16.6588 5.53386 16.4519 5.75861 16.343C6.11021 16.1719 6.51259 16.2419 6.78371 16.5191C7.05465 16.7964 7.11481 17.1995 6.93662 17.5465C6.82338 17.7672 6.61433 17.9338 6.3777 17.9922C6.30297 18.0106 6.22805 18.0196 6.15428 18.0196H6.15448ZM6.15467 16.4329C6.05522 16.4329 5.94888 16.4553 5.8389 16.5088C5.66166 16.5944 5.52696 16.7569 5.47791 16.9435C5.41238 17.1926 5.47868 17.4482 5.65457 17.6268C5.83028 17.8054 6.08454 17.8747 6.33344 17.8134C6.5193 17.7676 6.6835 17.6366 6.7726 17.4624C6.94428 17.1282 6.8228 16.8226 6.65227 16.6479C6.53654 16.5297 6.36084 16.4327 6.15467 16.4327V16.4329Z" fill="#431919"/>
<path d="M8.27823 17.3536H7.87586C7.57158 17.3536 7.32422 17.1062 7.32422 16.8019C7.32422 16.6531 7.38132 16.5141 7.48479 16.4107C7.58787 16.3072 7.72698 16.2505 7.87586 16.2505H8.27823V17.3536ZM7.87586 16.4523C7.78101 16.4523 7.69268 16.4881 7.62772 16.5534C7.56239 16.6188 7.52636 16.7069 7.52636 16.8019C7.52636 16.9947 7.68291 17.1516 7.87586 17.1516H8.07609V16.4523H7.87586Z" fill="#431919"/>
<path d="M8.27832 17.2528H8.07617V18.0198H8.27832V17.2528Z" fill="#431919"/>
<path d="M8.11157 17.1751L7.32471 17.8668L7.45805 18.0185L8.24492 17.3267L8.11157 17.1751Z" fill="#431919"/>
<path d="M19.7003 10.7054C19.5478 10.6491 19.0557 10.7456 18.7093 10.8299C18.5445 10.87 17.984 11.0062 17.9026 11.4553C17.8476 11.7587 18.0318 12.0909 18.2676 12.2358C18.7499 12.5316 19.3353 11.9164 19.396 11.851C19.5286 11.7085 19.5702 11.5969 19.588 11.5356C19.6757 11.2352 19.7386 10.7788 19.7003 10.7056V10.7054Z" fill="#4D5A4E"/>
<path d="M29.5415 21.1429C29.8362 21.0068 30.2947 20.7319 30.649 20.1913C31.2433 19.2849 31.2491 18.0827 30.8687 17.2333C30.7457 16.9584 30.4945 16.3975 30.0372 16.3241C29.4231 16.2256 28.9324 17.0858 28.912 17.1224C28.4999 17.8654 28.694 18.737 28.8454 19.4173C28.9421 19.8522 29.1337 20.4732 29.5413 21.1427L29.5415 21.1429Z" fill="#4D5A4E"/>
<path d="M27.2083 18.5306C27.5216 18.3452 28.0443 17.9629 28.3784 17.2611C28.7693 16.4402 28.9195 15.1461 28.3384 14.5581C28.1347 14.3519 27.786 14.1768 27.4608 14.2779C27.1142 14.3858 26.9487 14.7602 26.823 15.044C26.3781 16.0489 26.6248 17.111 26.7387 17.4998C26.8716 17.9541 27.06 18.3 27.2083 18.5306Z" fill="#4D5A4E"/>
<path d="M24.8306 15.4793C25.0493 15.3674 25.3629 15.1748 25.675 14.8508C25.9345 14.5814 26.4229 14.0742 26.5007 13.2967C26.5162 13.1409 26.6001 12.3041 26.1512 12.0052C25.8333 11.7935 25.3915 11.947 25.1303 12.1541C24.503 12.6513 24.5541 13.7454 24.5762 14.2156C24.6024 14.7778 24.7356 15.2189 24.8308 15.4795L24.8306 15.4793Z" fill="#4D5A4E"/>
<path d="M22.7567 13.382C22.7567 13.382 23.488 13.2606 23.6934 12.8931C23.9766 12.3866 24.2736 11.7382 23.945 11.031C23.8461 10.8183 23.62 10.5219 23.3575 10.5342C23.0207 10.5499 22.7793 11.0485 22.648 11.4949C22.3031 12.6675 22.7565 13.382 22.7565 13.382H22.7567Z" fill="#4D5A4E"/>
<path d="M21.4688 12.0984C21.4688 12.0984 22.2226 11.0488 22.3247 10.779C22.5688 10.1335 22.8436 9.40729 22.519 8.94073C22.3076 8.63684 21.8662 8.47819 21.5682 8.63684C21.2088 8.82845 21.1733 9.42051 21.1352 10.0601C21.0961 10.7154 21.4688 12.0984 21.4688 12.0984Z" fill="#4D5A4E"/>
<path d="M19.7572 10.6194C19.9012 10.5763 20.3718 10.419 20.6627 10.0087C21.0861 9.41189 20.9189 8.57687 20.3829 8.37587C20.1722 8.29674 19.8238 8.28543 19.6006 8.46822C19.268 8.74069 19.3737 9.31302 19.4556 9.75525C19.5261 10.1364 19.6541 10.427 19.757 10.6194H19.7572Z" fill="#4D5A4E"/>
<path d="M18.1208 9.47051C18.2285 9.43257 18.5881 9.28982 18.8317 8.87039C19.0947 8.41724 19.1087 7.83686 18.9106 7.40383C18.7385 7.02771 18.3367 6.61058 18.0292 6.74259C17.6276 6.91504 17.6466 7.91236 17.6487 8.02157C17.6623 8.73665 17.9656 9.24595 18.121 9.47051H18.1208Z" fill="#4D5A4E"/>
<path d="M16.6387 8.68715C16.7455 8.52332 16.906 8.23093 16.9744 7.82568C17.0223 7.54172 17.1076 7.03702 16.8227 6.60916C16.6319 6.32252 16.2483 6.02993 16.0086 6.14011C15.6932 6.28516 15.7978 7.05005 15.8139 7.16713C15.9126 7.88738 16.3531 8.40989 16.6386 8.68715H16.6387Z" fill="#4D5A4E"/>
<path d="M14.7357 7.75773C14.7986 7.64698 14.9043 7.42836 14.9285 7.13175C14.9396 6.99456 14.9704 6.61249 14.7497 6.31531C14.6119 6.13002 14.3299 5.91504 14.13 6.03441C13.935 6.1511 13.9277 6.52148 13.9269 6.56459C13.9135 7.25208 14.6524 7.70791 14.7357 7.75773Z" fill="#4D5A4E"/>
<path d="M14.5791 7.73263C14.1878 7.59142 13.8084 7.68071 13.6314 7.94743C13.5419 8.08213 13.4509 8.34271 13.5613 8.53988C13.6789 8.75026 13.9544 8.76099 14.1169 8.71558C14.3995 8.63664 14.5595 8.32738 14.5965 8.07753C14.618 7.93286 14.5981 7.81004 14.5789 7.73244L14.5791 7.73263Z" fill="#4D5A4E"/>
<path d="M16.4642 8.61383C15.8906 8.51535 15.456 8.62131 15.2031 8.71117C14.8733 8.82824 14.5219 8.95317 14.4464 9.27277C14.3773 9.56478 14.5599 9.92903 14.8068 10.0635C15.2466 10.303 15.8371 9.78398 16.1042 9.42759C16.3282 9.1283 16.4219 8.81311 16.4646 8.61383H16.4642Z" fill="#4D5A4E"/>
<path d="M18.0824 9.51299C17.8166 9.46892 17.5834 9.44765 17.128 9.50647C16.6403 9.56932 16.1985 9.83719 16.115 10.1564C16.0469 10.4164 16.2416 10.7556 16.42 10.9223C16.8047 11.2815 17.3731 11.0809 17.7107 10.764C18.0699 10.4268 18.0427 9.71149 18.0822 9.51318L18.0824 9.51299Z" fill="#4D5A4E"/>
<path d="M21.4751 12.0812C20.7878 11.942 20.2801 12.0829 20.0128 12.1854C19.6897 12.3092 19.3665 12.4331 19.2523 12.7713C19.1364 13.1153 19.2749 13.5671 19.533 13.761C19.9827 14.0986 20.799 13.656 21.1826 13.0513C21.42 12.6771 21.465 12.2829 21.475 12.0812H21.4751Z" fill="#4D5A4E"/>
<path d="M22.7179 13.3912C22.0776 13.2893 21.6179 13.4609 21.3989 13.5642C21.1362 13.6882 20.5162 13.981 20.5062 14.4686C20.4999 14.7784 20.7419 15.053 20.9626 15.172C21.4541 15.4368 22.1023 15.0706 22.4271 14.6025C22.7588 14.1247 22.7331 13.5698 22.7179 13.3912Z" fill="#4D5A4E"/>
<path d="M24.5648 15.26C24.1833 15.1159 23.4129 14.9017 22.5935 15.2339C22.2737 15.3637 21.6503 15.6166 21.5407 16.1975C21.4809 16.5144 21.5819 16.8881 21.798 17.109C22.2975 17.6194 23.3981 17.2998 23.9975 16.6206C24.4318 16.1282 24.5347 15.524 24.5648 15.2598V15.26Z" fill="#4D5A4E"/>
<path d="M26.5496 17.6416C26.2216 17.3842 25.5446 16.9405 24.6602 16.9644C24.2484 16.9755 23.6368 16.9922 23.2796 17.5113C22.9273 18.0234 23.0725 18.6619 23.0808 18.6962C23.1833 19.1191 23.4854 19.5532 23.8821 19.6533C24.3758 19.7778 24.9706 19.6299 25.9323 18.7092C26.2452 18.4095 26.4076 18.0581 26.5494 17.6414L26.5496 17.6416Z" fill="#4D5A4E"/>
<path d="M28.1971 19.6564C27.8966 19.4939 27.3965 19.2808 26.7675 19.2824C26.204 19.2837 25.0057 19.4584 24.8526 20.1729C24.7564 20.6213 25.1095 21.1082 25.4019 21.3425C26.03 21.8459 26.9466 21.6399 27.5034 21.1346C28.0752 20.6159 28.1754 19.8656 28.1969 19.6564H28.1971Z" fill="#4D5A4E"/>
<path d="M29.812 21.5719C29.6022 21.4401 29.0413 21.1314 28.3437 21.2659C28.1684 21.2996 27.1525 21.4954 26.9164 22.4054C26.8135 22.802 26.8524 23.3598 27.1563 23.675C27.7294 24.2695 29.0827 23.834 29.5955 22.8806C29.8679 22.374 29.8423 21.8344 29.812 21.5719Z" fill="#4D5A4E"/>
<path d="M33.37 24.3181C31.8379 23.4044 30.4214 22.3019 29.1585 21.0443C27.7774 19.6956 26.7048 18.0788 25.5113 16.5757C24.983 15.9255 24.4256 15.2911 23.8594 14.6717C21.8416 12.4854 19.6314 10.4278 17.0301 8.95276C16.5193 8.65711 15.9382 8.35188 15.4042 8.10049C13.8837 7.37564 12.2833 6.81519 10.6494 6.40381C12.1788 6.75943 13.6843 7.25244 15.1257 7.87957C15.3195 7.96886 15.563 8.07405 15.755 8.16602C16.1014 8.331 16.55 8.55671 16.8866 8.73797C19.6099 10.1888 21.9397 12.2639 24.0581 14.4862C24.64 15.1014 25.2089 15.7267 25.755 16.3758C26.923 17.7918 27.9661 19.3097 29.285 20.5902C29.5216 20.8255 29.7847 21.0673 30.032 21.2913C30.1635 21.4072 30.3302 21.5534 30.4624 21.6642L30.5492 21.738L30.6371 21.8104C31.5726 22.5852 32.5728 23.28 33.6245 23.8828L33.3698 24.3183L33.37 24.3181Z" fill="#506A49"/>
</svg>
