<svg width="36" height="36" viewBox="0 0 36 36" fill="none" xmlns="http://www.w3.org/2000/svg">
<circle cx="18" cy="18" r="17.65" fill="#FFF8E7" stroke="#5C370C" stroke-width="0.7"/>
<path d="M25.7142 9.25714C19.4049 12.0579 10.1713 16.1568 7.16033 17.4934C6.76957 17.6668 6.76926 18.216 7.15554 18.3992L11.1808 20.3085C11.3134 20.3714 11.4117 20.4894 11.4496 20.6311L12.9754 26.3397C13.0717 26.7 13.5143 26.8318 13.7921 26.583L16.4604 24.1926M25.7142 9.25714C24.6297 15.688 23.0328 25.1569 22.557 27.9781C22.4942 28.3505 22.057 28.5206 21.7582 28.2895L16.4604 24.1926M25.7142 9.25714C25.7142 8.7955 16.1809 19.591 14.2294 21.8058C14.0386 22.0222 14.0759 22.3485 14.3041 22.525L16.4604 24.1926" stroke="#5C370C" stroke-width="0.7"/>
</svg>
