<svg width="36" height="36" viewBox="0 0 36 36" fill="none" xmlns="http://www.w3.org/2000/svg">
<circle cx="18" cy="18" r="17.65" fill="#FFF8E7" stroke="#775C3C" stroke-width="0.7"/>
<path d="M18.9878 22.5781C19.028 22.3284 18.9965 10.2953 18.9892 7.69286C18.9884 7.41614 19.2126 7.2 19.4893 7.2H22.0535C22.3521 7.2 22.5774 7.46143 22.5953 7.75952C22.5987 7.81724 22.6046 7.87308 22.6138 7.9234C22.6502 8.12157 22.6661 8.22164 22.7264 8.41344C22.7894 8.61348 22.8434 8.72925 22.9291 8.92682C23.063 9.23537 23.1394 9.40977 23.312 9.69689C23.4256 9.88572 23.4994 9.98494 23.6273 10.1636C23.7951 10.3979 23.886 10.5334 24.0778 10.747C24.3111 11.0069 24.4541 11.1445 24.7309 11.3537C24.9616 11.5281 25.1051 11.6079 25.3549 11.7468L25.3615 11.7504C25.7259 11.953 25.9406 12.0497 26.33 12.1938C26.6576 12.3151 26.84 12.4103 27.1858 12.4505C27.2012 12.4523 27.2172 12.4538 27.2336 12.4551C27.5233 12.4785 27.7714 12.698 27.7714 12.9886V15.651C27.7714 15.9218 27.5556 16.1463 27.2849 16.14C27.2583 16.1393 27.2326 16.1385 27.2083 16.1375C26.8725 16.123 26.6831 16.1065 26.3525 16.0441C26.0125 15.98 25.827 15.9159 25.4966 15.8108C25.0577 15.6711 24.8105 15.5889 24.3931 15.3907C23.924 15.168 23.6828 14.996 23.2444 14.714C22.9619 14.5323 22.5817 14.7549 22.6123 15.0895C22.7651 16.7576 23.017 20.4773 22.5237 23.0214C22.467 23.3141 22.4456 23.4812 22.3661 23.7682C22.2993 24.0092 22.2493 24.1405 22.1634 24.3749L22.1559 24.3953C22.0487 24.6881 21.9859 24.8593 21.8481 25.145C21.6592 25.5364 21.5337 25.748 21.285 26.1017C21.0317 26.462 20.8846 26.6675 20.5643 26.9651C20.3587 27.1562 20.2272 27.2439 20.0013 27.4085C19.7199 27.6135 19.5578 27.7236 19.2581 27.8985C18.9256 28.0926 18.7349 28.1976 18.3797 28.3419C17.9208 28.5284 17.6493 28.6053 17.1635 28.692C16.7028 28.7742 16.4371 28.7703 15.9698 28.7853C15.6446 28.7957 15.4609 28.8124 15.1365 28.7853C14.8886 28.7646 14.7504 28.7398 14.5059 28.692C14.158 28.6238 13.958 28.5906 13.6276 28.4586C13.3229 28.3369 13.1706 28.2245 12.8843 28.0619C12.5351 27.8636 12.3325 27.7614 12.006 27.5252C11.7289 27.3247 11.5764 27.2051 11.3303 26.9651C11.017 26.6596 10.8723 26.4548 10.6096 26.1017C10.3117 25.7014 10.1201 25.4852 9.91143 25.0283C9.74485 24.6636 9.70114 24.46 9.59612 24.0715C9.48908 23.6756 9.43618 23.427 9.3709 23.0214C9.29963 22.5787 9.24847 22.3267 9.25829 21.878C9.26632 21.5107 9.3095 21.3064 9.3709 20.9446C9.43814 20.5483 9.47972 20.325 9.59612 19.9412C9.69796 19.6053 9.76391 19.4182 9.91143 19.1011C10.0758 18.7477 10.1948 18.5392 10.4069 18.2143C10.6179 17.8913 10.7407 17.7343 10.9925 17.4443C11.2588 17.1375 11.403 16.9563 11.7132 16.6975C12.1903 16.2996 12.384 16.1627 12.8618 15.9041C13.299 15.6675 13.6541 15.5658 14.0555 15.4374C14.4122 15.3233 14.8437 15.2507 15.0014 15.2274C15.1368 15.2074 15.488 15.1873 15.5846 15.1821C15.6013 15.1811 15.6177 15.1811 15.6344 15.182C15.7276 15.1868 16.061 15.2048 16.2851 15.2274C16.3404 15.233 16.4028 15.2412 16.4658 15.2506C16.7021 15.2856 16.8707 15.4929 16.8707 15.7317V18.523C16.8707 18.7891 16.6166 18.972 16.3527 18.9377C16.1881 18.9163 16.0938 18.9156 15.9292 18.9144L15.9248 18.9144C15.7311 18.913 15.6206 18.9063 15.4293 18.9377C15.2121 18.9734 15.0975 19.0059 14.8888 19.0777C14.6748 19.1514 14.5483 19.2034 14.3483 19.3111C14.1078 19.4405 13.9816 19.5378 13.7852 19.7311C13.604 19.9096 13.5302 20.0376 13.3798 20.2445C13.2507 20.4222 13.1604 20.5122 13.0645 20.7112C12.9576 20.933 12.9384 21.0765 12.8843 21.3179C12.8359 21.5339 12.8045 21.6565 12.7942 21.878C12.7798 22.1896 12.8115 22.3687 12.8843 22.6714C12.9361 22.8867 12.9762 23.0059 13.0645 23.2081C13.1653 23.4388 13.2388 23.5614 13.3798 23.7682C13.556 24.0265 13.67 24.1643 13.8978 24.3749C14.0619 24.5266 14.1635 24.6014 14.3483 24.7249C14.55 24.8598 14.6627 24.9446 14.8888 25.0283C15.0918 25.1034 15.2152 25.1417 15.4293 25.1683C15.7192 25.2043 15.8899 25.183 16.1743 25.1476L16.1951 25.145C16.4263 25.1161 16.5565 25.0938 16.7806 25.0283C17.073 24.9428 17.2338 24.8741 17.5013 24.7249C17.7742 24.5728 17.9275 24.4767 18.1545 24.2582C18.3327 24.0867 18.427 23.9793 18.5599 23.7682C18.7229 23.5091 18.7774 23.3344 18.8672 23.047L18.8752 23.0214C18.9284 22.8511 18.9427 22.8581 18.9878 22.5781Z" stroke="#775C3C" stroke-width="0.7"/>
</svg>
